# Blender v2.83.5 OBJ File: ''
# www.blender.org
mtllib blender.mtl
o cube
v 0.755900 0.562500 0.808394
v 0.755900 0.062500 0.808394
v 0.755900 0.562500 0.745894
v 0.755900 0.062500 0.745894
v 0.255900 0.562500 0.745894
v 0.255900 0.062500 0.745894
v 0.255900 0.562500 0.808394
v 0.255900 0.062500 0.808394
vt 0.609619 0.796631
vt 0.609619 0.672119
vt 0.624756 0.796631
vt 0.624756 0.672119
vt 0.750244 0.796631
vt 0.750244 0.672119
vt 0.765381 0.796631
vt 0.765381 0.672119
vt 0.749756 0.797119
vt 0.749756 0.812256
vt 0.625244 0.797119
vt 0.625244 0.812256
vt 0.874756 0.812256
vt 0.874756 0.797119
vt 0.750244 0.812256
vt 0.750244 0.797119
vt 0.765869 0.796631
vt 0.765869 0.672119
vt 0.890381 0.796631
vt 0.890381 0.672119
vt 0.625244 0.796631
vt 0.625244 0.672119
vt 0.749756 0.796631
vt 0.749756 0.672119
vn 1.0000 0.0000 0.0000
vn -1.0000 0.0000 0.0000
vn 0.0000 1.0000 0.0000
vn 0.0000 -1.0000 -0.0000
vn 0.0000 -0.0000 1.0000
vn 0.0000 0.0000 -1.0000
usemtl windows
s off
f 1/1/1 2/2/1 3/3/1
f 2/2/1 4/4/1 3/3/1
f 5/5/2 6/6/2 7/7/2
f 6/6/2 8/8/2 7/7/2
f 5/9/3 7/10/3 3/11/3
f 7/10/3 1/12/3 3/11/3
f 8/13/4 6/14/4 2/15/4
f 6/14/4 4/16/4 2/15/4
f 7/17/5 8/18/5 1/19/5
f 8/18/5 2/20/5 1/19/5
f 3/21/6 4/22/6 5/23/6
f 4/22/6 6/24/6 5/23/6
o cube.000
v 0.818400 0.062500 0.809644
v 0.818400 -0.000000 0.809644
v 0.818400 0.062500 0.184644
v 0.818400 0.000000 0.184644
v 0.193400 0.062500 0.184644
v 0.193400 0.000000 0.184644
v 0.193400 0.062500 0.809644
v 0.193400 -0.000000 0.809644
vt 0.000244 0.671631
vt 0.000244 0.656494
vt 0.156006 0.671631
vt 0.156006 0.656494
vt 0.312744 0.671631
vt 0.312744 0.656494
vt 0.468506 0.671631
vt 0.468506 0.656494
vt 0.312256 0.672119
vt 0.312256 0.827881
vt 0.156494 0.672119
vt 0.156494 0.827881
vt 0.468506 0.827881
vt 0.468506 0.672119
vt 0.312744 0.827881
vt 0.312744 0.672119
vt 0.468994 0.671631
vt 0.468994 0.656494
vt 0.624756 0.671631
vt 0.624756 0.656494
vt 0.156494 0.671631
vt 0.156494 0.656494
vt 0.312256 0.671631
vt 0.312256 0.656494
vn 1.0000 0.0000 0.0000
vn -1.0000 0.0000 0.0000
vn 0.0000 1.0000 0.0000
vn 0.0000 -1.0000 -0.0000
vn 0.0000 0.0000 1.0000
vn 0.0000 0.0000 -1.0000
usemtl m_0
s off
f 9/25/7 10/26/7 11/27/7
f 10/26/7 12/28/7 11/27/7
f 13/29/8 14/30/8 15/31/8
f 14/30/8 16/32/8 15/31/8
f 13/33/9 15/34/9 11/35/9
f 15/34/9 9/36/9 11/35/9
f 16/37/10 14/38/10 10/39/10
f 14/38/10 12/40/10 10/39/10
f 15/41/11 16/42/11 9/43/11
f 16/42/11 10/44/11 9/43/11
f 11/45/12 12/46/12 13/47/12
f 12/46/12 14/48/12 13/47/12
o cube.001
v 0.818400 0.625000 0.809644
v 0.818400 0.562500 0.809644
v 0.818400 0.625000 0.184644
v 0.818400 0.562500 0.184644
v 0.193400 0.625000 0.184644
v 0.193400 0.562500 0.184644
v 0.193400 0.625000 0.809644
v 0.193400 0.562500 0.809644
vt 0.000244 0.843506
vt 0.000244 0.828369
vt 0.156006 0.843506
vt 0.156006 0.828369
vt 0.312744 0.843506
vt 0.312744 0.828369
vt 0.468506 0.843506
vt 0.468506 0.828369
vt 0.312256 0.843994
vt 0.312256 0.999756
vt 0.156494 0.843994
vt 0.156494 0.999756
vt 0.468506 0.999756
vt 0.468506 0.843994
vt 0.312744 0.999756
vt 0.312744 0.843994
vt 0.468994 0.843506
vt 0.468994 0.828369
vt 0.624756 0.843506
vt 0.624756 0.828369
vt 0.156494 0.843506
vt 0.156494 0.828369
vt 0.312256 0.843506
vt 0.312256 0.828369
vn 1.0000 0.0000 0.0000
vn -1.0000 0.0000 0.0000
vn 0.0000 1.0000 0.0000
vn 0.0000 -1.0000 -0.0000
vn 0.0000 0.0000 1.0000
vn 0.0000 0.0000 -1.0000
usemtl m_0
s off
f 17/49/13 18/50/13 19/51/13
f 18/50/13 20/52/13 19/51/13
f 21/53/14 22/54/14 23/55/14
f 22/54/14 24/56/14 23/55/14
f 21/57/15 23/58/15 19/59/15
f 23/58/15 17/60/15 19/59/15
f 24/61/16 22/62/16 18/63/16
f 22/62/16 20/64/16 18/63/16
f 23/65/17 24/66/17 17/67/17
f 24/66/17 18/68/17 17/67/17
f 19/69/18 20/70/18 21/71/18
f 20/70/18 22/72/18 21/71/18
o cube.002
v 0.817625 0.562500 0.809644
v 0.817625 0.062500 0.809644
v 0.817625 0.562500 0.184644
v 0.817625 0.062500 0.184644
v 0.755125 0.562500 0.184644
v 0.755125 0.062500 0.184644
v 0.755125 0.562500 0.809644
v 0.755125 0.062500 0.809644
vt 0.156494 0.640381
vt 0.156494 0.515869
vt 0.312256 0.640381
vt 0.312256 0.515869
vt 0.328369 0.640381
vt 0.328369 0.515869
vt 0.484131 0.640381
vt 0.484131 0.515869
vt 0.327881 0.640869
vt 0.327881 0.796631
vt 0.312744 0.640869
vt 0.312744 0.796631
vt 0.343506 0.796631
vt 0.343506 0.640869
vt 0.328369 0.796631
vt 0.328369 0.640869
vt 0.484619 0.640381
vt 0.484619 0.515869
vt 0.499756 0.640381
vt 0.499756 0.515869
vt 0.312744 0.640381
vt 0.312744 0.515869
vt 0.327881 0.640381
vt 0.327881 0.515869
vn 1.0000 0.0000 0.0000
vn -1.0000 -0.0000 0.0000
vn 0.0000 1.0000 0.0000
vn 0.0000 -1.0000 -0.0000
vn 0.0000 -0.0000 1.0000
vn 0.0000 0.0000 -1.0000
usemtl windows
s off
f 25/73/19 26/74/19 27/75/19
f 26/74/19 28/76/19 27/75/19
f 29/77/20 30/78/20 31/79/20
f 30/78/20 32/80/20 31/79/20
f 29/81/21 31/82/21 27/83/21
f 31/82/21 25/84/21 27/83/21
f 32/85/22 30/86/22 26/87/22
f 30/86/22 28/88/22 26/87/22
f 31/89/23 32/90/23 25/91/23
f 32/90/23 26/92/23 25/91/23
f 27/93/24 28/94/24 29/95/24
f 28/94/24 30/96/24 29/95/24
o cube.003
v 0.255125 0.562500 0.809644
v 0.255125 0.062500 0.809644
v 0.255125 0.562500 0.184644
v 0.255125 0.062500 0.184644
v 0.192625 0.562500 0.184644
v 0.192625 0.062500 0.184644
v 0.192625 0.562500 0.809644
v 0.192625 0.062500 0.809644
vt 0.500244 0.827881
vt 0.500244 0.703369
vt 0.656006 0.827881
vt 0.656006 0.703369
vt 0.672119 0.827881
vt 0.672119 0.703369
vt 0.827881 0.827881
vt 0.827881 0.703369
vt 0.671631 0.828369
vt 0.671631 0.984131
vt 0.656494 0.828369
vt 0.656494 0.984131
vt 0.687256 0.984131
vt 0.687256 0.828369
vt 0.672119 0.984131
vt 0.672119 0.828369
vt 0.828369 0.827881
vt 0.828369 0.703369
vt 0.843506 0.827881
vt 0.843506 0.703369
vt 0.656494 0.827881
vt 0.656494 0.703369
vt 0.671631 0.827881
vt 0.671631 0.703369
vn 1.0000 0.0000 0.0000
vn -1.0000 -0.0000 0.0000
vn 0.0000 1.0000 0.0000
vn 0.0000 -1.0000 -0.0000
vn 0.0000 -0.0000 1.0000
vn 0.0000 0.0000 -1.0000
usemtl windows
s off
f 33/97/25 34/98/25 35/99/25
f 34/98/25 36/100/25 35/99/25
f 37/101/26 38/102/26 39/103/26
f 38/102/26 40/104/26 39/103/26
f 37/105/27 39/106/27 35/107/27
f 39/106/27 33/108/27 35/107/27
f 40/109/28 38/110/28 34/111/28
f 38/110/28 36/112/28 34/111/28
f 39/113/29 40/114/29 33/115/29
f 40/114/29 34/116/29 33/115/29
f 35/117/30 36/118/30 37/119/30
f 36/118/30 38/120/30 37/119/30
o cube.004
v 0.755900 0.562500 0.248394
v 0.755900 0.062500 0.248394
v 0.755900 0.562500 0.185894
v 0.755900 0.062500 0.185894
v 0.255900 0.562500 0.185894
v 0.255900 0.062500 0.185894
v 0.255900 0.562500 0.248394
v 0.255900 0.062500 0.248394
vt 0.593994 0.968506
vt 0.593994 0.843994
vt 0.609131 0.968506
vt 0.609131 0.843994
vt 0.734619 0.968506
vt 0.734619 0.843994
vt 0.749756 0.968506
vt 0.749756 0.843994
vt 0.734131 0.968994
vt 0.734131 0.984131
vt 0.609619 0.968994
vt 0.609619 0.984131
vt 0.859131 0.984131
vt 0.859131 0.968994
vt 0.734619 0.984131
vt 0.734619 0.968994
vt 0.750244 0.968506
vt 0.750244 0.843994
vt 0.874756 0.968506
vt 0.874756 0.843994
vt 0.609619 0.968506
vt 0.609619 0.843994
vt 0.734131 0.968506
vt 0.734131 0.843994
vn 1.0000 0.0000 0.0000
vn -1.0000 0.0000 0.0000
vn 0.0000 1.0000 0.0000
vn 0.0000 -1.0000 0.0000
vn 0.0000 -0.0000 1.0000
vn 0.0000 0.0000 -1.0000
usemtl windows
s off
f 41/121/31 42/122/31 43/123/31
f 42/122/31 44/124/31 43/123/31
f 45/125/32 46/126/32 47/127/32
f 46/126/32 48/128/32 47/127/32
f 45/129/33 47/130/33 43/131/33
f 47/130/33 41/132/33 43/131/33
f 48/133/34 46/134/34 42/135/34
f 46/134/34 44/136/34 42/135/34
f 47/137/35 48/138/35 41/139/35
f 48/138/35 42/140/35 41/139/35
f 43/141/36 44/142/36 45/143/36
f 44/142/36 46/144/36 45/143/36
o cube.005
v 0.542790 0.250000 0.623726
v 0.542790 0.187500 0.623726
v 0.586827 0.250000 0.668076
v 0.586827 0.187500 0.668076
v 0.631177 0.250000 0.624039
v 0.631177 0.187500 0.624039
v 0.587139 0.250000 0.579689
v 0.587139 0.187500 0.579689
vt 0.062744 0.984131
vt 0.062744 0.968994
vt 0.077881 0.984131
vt 0.077881 0.968994
vt 0.093994 0.984131
vt 0.093994 0.968994
vt 0.109131 0.984131
vt 0.109131 0.968994
vt 0.093506 0.984619
vt 0.093506 0.999756
vt 0.078369 0.984619
vt 0.078369 0.999756
vt 0.109131 0.999756
vt 0.109131 0.984619
vt 0.093994 0.999756
vt 0.093994 0.984619
vt 0.109619 0.984131
vt 0.109619 0.968994
vt 0.124756 0.984131
vt 0.124756 0.968994
vt 0.078369 0.984131
vt 0.078369 0.968994
vt 0.093506 0.984131
vt 0.093506 0.968994
vn -0.7096 0.0000 0.7046
vn 0.7096 0.0000 -0.7046
vn -0.0000 1.0000 -0.0000
vn 0.0000 -1.0000 0.0000
vn -0.7046 0.0000 -0.7096
vn 0.7046 -0.0000 0.7096
usemtl m_0
s off
f 49/145/37 50/146/37 51/147/37
f 50/146/37 52/148/37 51/147/37
f 53/149/38 54/150/38 55/151/38
f 54/150/38 56/152/38 55/151/38
f 53/153/39 55/154/39 51/155/39
f 55/154/39 49/156/39 51/155/39
f 56/157/40 54/158/40 50/159/40
f 54/158/40 52/160/40 50/159/40
f 55/161/41 56/162/41 49/163/41
f 56/162/41 50/164/41 49/163/41
f 51/165/42 52/166/42 53/167/42
f 52/166/42 54/168/42 53/167/42
o cube.006
v 0.411208 0.750000 0.490148
v 0.411208 0.187500 0.490148
v 0.499284 0.750000 0.578848
v 0.499284 0.187500 0.578848
v 0.587984 0.750000 0.490773
v 0.587984 0.187500 0.490772
v 0.499908 0.750000 0.402073
v 0.499908 0.187500 0.402073
vt 0.000244 0.452881
vt 0.000244 0.312744
vt 0.031006 0.452881
vt 0.031006 0.312744
vt 0.062744 0.452881
vt 0.062744 0.312744
vt 0.093506 0.452881
vt 0.093506 0.312744
vt 0.062256 0.453369
vt 0.062256 0.484131
vt 0.031494 0.453369
vt 0.031494 0.484131
vt 0.093506 0.484131
vt 0.093506 0.453369
vt 0.062744 0.484131
vt 0.062744 0.453369
vt 0.093994 0.452881
vt 0.093994 0.312744
vt 0.124756 0.452881
vt 0.124756 0.312744
vt 0.031494 0.452881
vt 0.031494 0.312744
vt 0.062256 0.452881
vt 0.062256 0.312744
vn -0.7096 -0.0000 0.7046
vn 0.7096 0.0000 -0.7046
vn 0.0000 1.0000 0.0000
vn 0.0000 -1.0000 0.0000
vn -0.7046 0.0000 -0.7096
vn 0.7046 0.0000 0.7096
usemtl m_0
s off
f 57/169/43 58/170/43 59/171/43
f 58/170/43 60/172/43 59/171/43
f 61/173/44 62/174/44 63/175/44
f 62/174/44 64/176/44 63/175/44
f 61/177/45 63/178/45 59/179/45
f 63/178/45 57/180/45 59/179/45
f 64/181/46 62/182/46 58/183/46
f 62/182/46 60/184/46 58/183/46
f 63/185/47 64/186/47 57/187/47
f 64/186/47 58/188/47 57/187/47
f 59/189/48 60/190/48 61/191/48
f 60/190/48 62/192/48 61/191/48
o cube.007
v 0.324061 0.250000 0.400493
v 0.324061 0.187500 0.400493
v 0.412021 0.250000 0.489308
v 0.412021 0.187500 0.489308
v 0.456428 0.250000 0.445328
v 0.456428 0.187500 0.445328
v 0.368468 0.250000 0.356513
v 0.368468 0.187500 0.356513
vt 0.000244 0.921631
vt 0.000244 0.906494
vt 0.031006 0.921631
vt 0.031006 0.906494
vt 0.047119 0.921631
vt 0.047119 0.906494
vt 0.077881 0.921631
vt 0.077881 0.906494
vt 0.046631 0.922119
vt 0.046631 0.952881
vt 0.031494 0.922119
vt 0.031494 0.952881
vt 0.062256 0.952881
vt 0.062256 0.922119
vt 0.047119 0.952881
vt 0.047119 0.922119
vt 0.078369 0.921631
vt 0.078369 0.906494
vt 0.093506 0.921631
vt 0.093506 0.906494
vt 0.031494 0.921631
vt 0.031494 0.906494
vt 0.046631 0.921631
vt 0.046631 0.906494
vn -0.7105 0.0000 0.7037
vn 0.7105 0.0000 -0.7037
vn 0.0000 1.0000 0.0000
vn 0.0000 -1.0000 0.0000
vn -0.7037 0.0000 -0.7105
vn 0.7037 0.0000 0.7105
usemtl m_0
s off
f 65/193/49 66/194/49 67/195/49
f 66/194/49 68/196/49 67/195/49
f 69/197/50 70/198/50 71/199/50
f 70/198/50 72/200/50 71/199/50
f 69/201/51 71/202/51 67/203/51
f 71/202/51 65/204/51 67/203/51
f 72/205/52 70/206/52 66/207/52
f 70/206/52 68/208/52 66/207/52
f 71/209/53 72/210/53 65/211/53
f 72/210/53 66/212/53 65/211/53
f 67/213/54 68/214/54 69/215/54
f 68/214/54 70/216/54 69/215/54
o cube.008
v 0.542845 0.250000 0.535674
v 0.542845 0.187500 0.535674
v 0.630805 0.250000 0.624489
v 0.630805 0.187500 0.624489
v 0.675212 0.250000 0.580509
v 0.675212 0.187500 0.580509
v 0.587252 0.250000 0.491694
v 0.587252 0.187500 0.491694
vt 0.000244 0.968506
vt 0.000244 0.953369
vt 0.031006 0.968506
vt 0.031006 0.953369
vt 0.047119 0.968506
vt 0.047119 0.953369
vt 0.077881 0.968506
vt 0.077881 0.953369
vt 0.046631 0.968994
vt 0.046631 0.999756
vt 0.031494 0.968994
vt 0.031494 0.999756
vt 0.062256 0.999756
vt 0.062256 0.968994
vt 0.047119 0.999756
vt 0.047119 0.968994
vt 0.078369 0.968506
vt 0.078369 0.953369
vt 0.093506 0.968506
vt 0.093506 0.953369
vt 0.031494 0.968506
vt 0.031494 0.953369
vt 0.046631 0.968506
vt 0.046631 0.953369
vn -0.7105 -0.0000 0.7037
vn 0.7105 0.0000 -0.7037
vn 0.0000 1.0000 0.0000
vn -0.0000 -1.0000 0.0000
vn -0.7037 0.0000 -0.7105
vn 0.7037 0.0000 0.7105
usemtl m_0
s off
f 73/217/55 74/218/55 75/219/55
f 74/218/55 76/220/55 75/219/55
f 77/221/56 78/222/56 79/223/56
f 78/222/56 80/224/56 79/223/56
f 77/225/57 79/226/57 75/227/57
f 79/226/57 73/228/57 75/227/57
f 80/229/58 78/230/58 74/231/58
f 78/230/58 76/232/58 74/231/58
f 79/233/59 80/234/59 73/235/59
f 80/234/59 74/236/59 73/235/59
f 75/237/60 76/238/60 77/239/60
f 76/238/60 78/240/60 77/239/60
o cube.009
v 0.368084 0.250000 0.356894
v 0.368084 0.187500 0.356894
v 0.412064 0.250000 0.401302
v 0.412064 0.187500 0.401302
v 0.456472 0.250000 0.357321
v 0.456472 0.187500 0.357321
v 0.412492 0.250000 0.312914
v 0.412492 0.187500 0.312914
vt 0.062744 0.937256
vt 0.062744 0.922119
vt 0.077881 0.937256
vt 0.077881 0.922119
vt 0.093994 0.937256
vt 0.093994 0.922119
vt 0.109131 0.937256
vt 0.109131 0.922119
vt 0.093506 0.937744
vt 0.093506 0.952881
vt 0.078369 0.937744
vt 0.078369 0.952881
vt 0.109131 0.952881
vt 0.109131 0.937744
vt 0.093994 0.952881
vt 0.093994 0.937744
vt 0.109619 0.937256
vt 0.109619 0.922119
vt 0.124756 0.937256
vt 0.124756 0.922119
vt 0.078369 0.937256
vt 0.078369 0.922119
vt 0.093506 0.937256
vt 0.093506 0.922119
vn -0.7105 0.0000 0.7037
vn 0.7105 0.0000 -0.7037
vn 0.0000 1.0000 0.0000
vn 0.0000 -1.0000 0.0000
vn -0.7037 0.0000 -0.7105
vn 0.7037 0.0000 0.7105
usemtl m_0
s off
f 81/241/61 82/242/61 83/243/61
f 82/242/61 84/244/61 83/243/61
f 85/245/62 86/246/62 87/247/62
f 86/246/62 88/248/62 87/247/62
f 85/249/63 87/250/63 83/251/63
f 87/250/63 81/252/63 83/251/63
f 88/253/64 86/254/64 82/255/64
f 86/254/64 84/256/64 82/255/64
f 87/257/65 88/258/65 81/259/65
f 88/258/65 82/260/65 81/259/65
f 83/261/66 84/262/66 85/263/66
f 84/262/66 86/264/66 85/263/66
